<svg width="1920" height="250" viewBox="0 0 1920 250" fill="none" xmlns="http://www.w3.org/2000/svg">
<path fill-rule="evenodd" clip-rule="evenodd" d="M0.144774 0L0.144781 24.832L0 25.0058V178.5C35.6405 221.36 100.233 250 174 250C246.15 250 309.523 222.602 345.614 181.298C377.094 194.449 413.437 201.951 452.145 201.951C500.225 201.951 544.659 190.375 580.653 170.777C618.359 196.839 666.731 212.499 719.478 212.499C761.123 212.499 800.04 202.737 833.135 185.802C873.037 206.082 925.141 218.358 982.144 218.358C1049.36 218.358 1109.76 201.292 1151.38 174.161C1193.44 197.193 1251.88 211.467 1316.49 211.467C1385.13 211.467 1446.82 195.354 1489.29 169.743C1530.85 217.708 1608.75 250 1698 250C1797.91 250 1883.6 209.532 1920 151.911V0H0.144774Z" fill="#0BB7BD"/>
</svg>
